<?xml version="1.0" encoding="UTF-8"?>
<svg id="github" xmlns="http://www.w3.org/2000/svg" viewBox="0 0 64 64">
  <rect id="bg" x="2.4" y="2.4" width="59.3" height="59.3" rx="5.49" ry="5.49" style="fill: #5c6bc0;"/>
  <path id="contorno" d="M54.89,32.63c0,9.81-6.23,18.51-15.52,21.64-.16.03-.22.04-.27.04h-.51s.01-1.89.01-1.89c0-1.21.02-3,.02-5.05,0-1.2-.23-2.32-.65-3.25l-.27-.58.63-.12c2.42-.46,4.31-1.28,5.78-2.51,2.43-2.03,3.66-5.23,3.66-9.51,0-2.38-.73-4.49-2.16-6.27l-.16-.2.07-.25c.3-1.08.64-3.31-.45-6.09l-.13-.3-.31-.11c-.22-.07-2.29-.61-6.62,2.21l-.19.11-.21-.05c-1.77-.44-3.64-.67-5.57-.68-1.91.01-3.78.24-5.55.68l-.21.05-.18-.11c-4.34-2.82-6.41-2.28-6.63-2.21l-.31.11-.13.3c-1.09,2.78-.75,5.01-.45,6.09l.07.25-.16.2c-1.43,1.79-2.16,3.89-2.16,6.27,0,4.27,1.23,7.47,3.65,9.51,1.47,1.23,3.36,2.06,5.78,2.53l.62.12-.26.58c-.18.39-.33.83-.43,1.28l-.06.27-.26.1c-2.27.78-4.17.11-5.35-1.91-.16-.27-1.55-2.6-4.17-2.78-.94-.04-1.6.3-1.77.85-.25.77.49,1.4,1.17,1.85l.06.05c.28.15,1.42.88,2.29,3.06.08.22.52,1.32,1.75,2.24.97.74,2.74,1.54,5.59,1.22l.55-.07.03,4.01h-.5s-.11-.01-.19-.02c-9.38-3.15-15.62-11.85-15.62-21.66,0-12.6,10.25-22.84,22.84-22.84,6.1,0,11.84,2.37,16.15,6.69,4.32,4.31,6.69,10.05,6.69,16.15Z" style="fill: #1a2228;"/>
  <path id="line" d="M56.14,64H7.86c-4.33,0-7.86-3.52-7.86-7.86V7.86C0,3.52,3.52,0,7.86,0h48.28c4.33,0,7.86,3.52,7.86,7.86v48.28c0,2.1-.82,4.07-2.3,5.56s-3.46,2.3-5.56,2.3ZM7.86,2.4c-3.01,0-5.45,2.45-5.45,5.45v48.29c0,3.01,2.45,5.45,5.45,5.45h48.29c1.46,0,2.83-.57,3.86-1.6,1.03-1.03,1.6-2.4,1.6-3.86V7.86c0-3.01-2.45-5.45-5.45-5.45H7.86ZM39.04,56.21c-.74,0-1.24-.27-1.56-.53-.53-.44-.84-1.11-.84-1.85,0-.26,0-.71,0-1.32,0-1.21.02-3.05.02-5.15s-.83-3.15-1.18-3.46l-2.08-1.8,2.73-.3c4.8-.53,9.7-2.19,9.7-10.45,0-2.13-.71-3.99-2.11-5.52l-.52-.56.29-.71c.15-.35.78-2.12.02-4.62-.78.09-2.38.51-4.94,2.24l-.46.31-.54-.15c-1.74-.48-3.67-.74-5.6-.75-1.91,0-3.84.27-5.58.75l-.54.15-.46-.31c-2.56-1.74-4.17-2.16-4.95-2.24-.76,2.5-.13,4.26.02,4.62l.29.71-.51.56c-1.4,1.54-2.12,3.4-2.12,5.52,0,8.25,4.9,9.92,9.68,10.47l2.71.31-2.05,1.79c-.55.48-.95,1.36-1.1,2.42l-.09.66-.61.27c-.88.39-2.24.83-3.75.7-1.06-.09-2.46-.51-3.69-1.84.01.03.03.07.04.1l.02.06c.09.24,1.31,3.13,6.55,1.99l1.45-.32v1.48c.01,1.06.02,2.09.03,2.91,0,.7.01,1.23.01,1.49,0,.73-.3,1.4-.83,1.84-.4.33-1.1.68-2.2.48l-.08-.02-.08-.03c-10.14-3.38-16.96-12.83-16.96-23.53,0-13.67,11.12-24.8,24.8-24.8,6.62,0,12.85,2.58,17.53,7.26,4.68,4.68,7.26,10.91,7.26,17.53,0,10.69-6.81,20.15-16.94,23.53l-.07.02h-.08c-.24.06-.46.08-.66.08ZM38.39,43.9c.45.99.7,2.17.7,3.47,0,2.11-.01,3.95-.02,5.17,0,.58,0,1.02,0,1.28.03,0,.07,0,.12-.01,9.11-3.07,15.22-11.59,15.22-21.22,0-5.98-2.33-11.6-6.56-15.83-4.23-4.23-9.85-6.56-15.83-6.56-12.35,0-22.39,10.05-22.39,22.39,0,9.63,6.11,18.14,15.22,21.22.05,0,.09,0,.12,0,0-.27,0-.78-.01-1.45,0-.45,0-.96-.01-1.5-2.98.34-4.87-.49-5.96-1.31-1.33-1-1.82-2.2-1.92-2.47-.82-2.06-1.88-2.71-2.01-2.79l-.1-.04-.05-.05c-.48-.33-1.75-1.2-1.37-2.43.25-.78,1.06-1.22,2.22-1.2h.07c2.89.21,4.42,2.76,4.57,3.03,1.31,2.24,3.22,2.23,4.76,1.69.11-.49.27-.96.46-1.39-1.94-.38-4.18-1.1-6.02-2.64-2.55-2.14-3.84-5.48-3.84-9.92,0-2.5.77-4.71,2.28-6.6-.34-1.22-.67-3.54.47-6.42l.21-.53.54-.17c.41-.13,2.63-.62,7.07,2.26,1.81-.45,3.72-.69,5.69-.7,1.98,0,3.89.24,5.7.7,4.44-2.88,6.65-2.4,7.06-2.26l.54.17.21.53c1.14,2.88.81,5.2.47,6.42,1.51,1.88,2.27,4.09,2.27,6.6,0,4.45-1.29,7.79-3.85,9.92-1.83,1.53-4.08,2.25-6.02,2.62Z" style="fill: #fff;"/>
</svg>