<?xml version="1.0" encoding="UTF-8"?>
<svg id="linkedin" xmlns="http://www.w3.org/2000/svg" viewBox="0 0 64 64">
  <rect id="bg" x="2.81" y="3.25" width="58.38" height="57.5" rx="4.64" ry="4.64" style="fill: #0077b5;"/>
  <path id="line" d="M20,52.88h-8.75v-28.25h8.75v28.25ZM20.87,15.62c0-2.83-2.29-5.12-5.12-5.12s-5.13,2.3-5.13,5.12,2.29,5.13,5.13,5.13,5.12-2.3,5.12-5.13ZM52.75,37.33c0-7.58-1.6-13.21-10.46-13.21-4.26,0-7.11,2.13-8.28,4.34h0v-3.84h-8.5v28.25h8.5v-14.03c0-3.67.94-7.23,5.49-7.23s4.64,4.2,4.64,7.47v13.79h8.62v-15.54ZM64,56.5V7.5c0-4.14-3.36-7.5-7.5-7.5H7.5C3.36,0,0,3.36,0,7.5v49c0,4.14,3.36,7.5,7.5,7.5h49c4.14,0,7.5-3.36,7.5-7.5ZM56.5,5c1.38,0,2.5,1.12,2.5,2.5v49c0,1.38-1.12,2.5-2.5,2.5H7.5c-1.38,0-2.5-1.12-2.5-2.5V7.5c0-1.38,1.12-2.5,2.5-2.5h49Z" style="fill: #fff;"/>
</svg>