<?xml version="1.0" encoding="UTF-8"?>
<svg id="pena" xmlns="http://www.w3.org/2000/svg" viewBox="0 0 96.51 160">
  <path id="corpo_esquerdo" d="M43.88,20.95c-1.45,1.85-2.79,3.81-4,5.86l-2.27,3.6c-.53.8-.53,1.87,0,2.67l5.07,8.27h-10.14c-.93,0-1.73.53-2.13,1.2L2.4,90.03c-3.2,5.34-3.2,11.87,0,17.21l10,16.67,2.8-4.94L60,43.16c-7.52-5.43-13.24-13.18-16.12-22.21Z" style="fill: #f2f2f2;"/>
  <path id="corpo_direito" d="M64.29,45.9L19.61,121.38l-.67,1.33-1.38,2.33,7.86,1.77.06-.1,11.07.13h.13c6.14,0,11.87-3.2,14.94-8.54l10.4-17.74c.53-.8.53-1.73,0-2.53l-5.2-8.8,10.4.13c.93,0,1.73-.53,2.27-1.2l19.61-33.08c.77-1.31,1.45-2.65,2.1-4-1.82.23-3.68.36-5.57.36-7.75,0-15.02-2.02-21.34-5.55Z" style="fill: #fce36b;"/>
  <path id="caule" d="M4.8,146.58c-.67,1.2-1.07,2.53-1.07,3.87v8.27c0,1.33,1.73,1.73,2.4.67l19.28-32.58-7.86-1.77-12.76,21.55Z" style="fill: #3d2202;"/>
  <path id="sup_esquerdo" d="M85.63,0c-16.32.35-31.71,8.13-41.75,20.95,2.88,9.03,8.6,16.78,16.12,22.21L82.43,5.2l3.2-5.2Z" style="fill: #3d2202;"/>
  <path id="sup_direto" d="M90.03,2.53h0s-3.07,5.07-3.07,5.07l-22.67,38.3c6.32,3.53,13.59,5.55,21.34,5.55,1.89,0,3.74-.13,5.57-.36,7.46-15.58,7.06-33.7-1.17-48.55Z" style="fill: #3d2202;"/>
</svg>