<?xml version="1.0" encoding="UTF-8"?>
<svg id="site" xmlns="http://www.w3.org/2000/svg" viewBox="0 0 64 64">
  <rect id="q4" x="7.28" y="28.05" width="25.22" height="27.22" style="fill: #0d4d91;"/>
  <rect id="q3" x="32" y="15.82" width="24.4" height="27.51" style="fill: #fcd947;"/>
  <rect id="q2" x="7.48" y="15.61" width="24.81" height="13.75" style="fill: #f65915;"/>
  <rect id="q1" x="31.99" y="42.86" width="24.41" height="13.11" style="fill: #262335;"/>
  <path id="line" d="M63.98,56.83V6.9c0-3.87-3.06-6.9-6.96-6.9H6.96C3.06,0,0,3.03,0,6.9v50.21c0,3.86,3.06,6.89,6.96,6.89h50.07c3.9,0,7.23-3.31,6.96-7.17ZM61.19,56.83c0,2.21-1.66,4.14-4.17,4.14H6.96c-2.23,0-4.18-1.92-4.18-4.14V6.9c0-2.21,1.67-4.15,4.18-4.15h50.07c2.23,0,4.17,1.93,4.17,4.15v49.93ZM10.3,10.21c-.56,0-.83-.28-1.11-.55s-.28-.55-.28-.83,0-.83.28-.83c.56-.83,1.39-.83,1.95-.28.28.28.56.55.56.83s-.28.83-.56,1.1c-.28.28-.56.55-.83.55ZM16.41,10.21c-.56,0-.83-.28-1.11-.55s-.28-.55-.28-.83,0-.55.28-.83c.56-.83,1.39-.83,1.95-.28.28.28.28.55.28.83s0,.83-.28,1.1c-.28.28-.56.55-.83.55ZM22.53,10.21c-.28,0-.83,0-.83-.28-.56-.55-.56-.83-.56-1.1s0-.55.28-.83c.56-.83,1.67-.83,2.23-.28,0,.28.28.55.28,1.1,0,.28,0,.83-.28,1.1-.28,0-.83.28-1.11.28ZM56.2,14.63H7.79c-.83,0-1.39.55-1.39,1.38v40c0,.82.56,1.38,1.39,1.38h48.41c.83,0,1.39-.56,1.39-1.38V16c0-.83-.56-1.38-1.39-1.38ZM30.6,54.62H9.18v-24.28h21.42v24.28ZM30.6,27.59H9.18v-10.2h21.42v10.2ZM54.81,54.62h-21.42v-10.2h21.42v10.2ZM54.81,41.66h-21.42v-24.28h21.42v24.28Z" style="fill: #fff;"/>
</svg>